<svg version="1.0" xmlns="http://www.w3.org/2000/svg"
 width="1920.000000pt" height="1536.000000pt" viewBox="0 0 1920.000000 1536.000000"
 preserveAspectRatio="xMidYMid meet">

<g transform="translate(0.000000,1536.000000) scale(0.100000,-0.100000)"
fill="#000000" stroke="none">
<path d="M8287 11180 c-272 -51 -422 -124 -388 -189 7 -11 26 -28 44 -37 18
-9 33 -18 35 -19 2 -2 -10 -47 -27 -101 -79 -258 -81 -299 -81 -1481 l0 -1013
130 0 129 0 4 1088 c3 1063 4 1089 24 1182 43 193 112 363 207 509 25 39 46
74 46 76 0 7 -13 5 -123 -15z"/>
<path d="M10790 11195 c0 -2 20 -35 44 -72 82 -127 148 -277 186 -418 48 -182
50 -221 50 -1327 l0 -1038 130 0 130 0 0 1013 c0 1182 -2 1223 -81 1481 -17
54 -29 99 -27 101 2 1 17 10 35 19 46 23 59 51 38 82 -35 53 -146 96 -362 139
-131 26 -143 28 -143 20z"/>
<path d="M7731 8184 c-179 -48 -329 -200 -375 -380 -69 -269 90 -552 359 -637
l70 -22 1815 0 1815 0 70 22 c269 85 428 368 359 637 -47 183 -197 333 -380
380 -55 14 -251 16 -1870 15 -1547 0 -1817 -2 -1863 -15z"/>
<path d="M6859 7777 c-39 -26 -66 -89 -56 -129 11 -42 55 -87 98 -98 l39 -11
0 -927 c0 -984 2 -1045 50 -1277 187 -918 852 -1683 1731 -1990 206 -72 458
-126 660 -141 l89 -7 -2 -366 -3 -366 -315 -6 c-707 -15 -1281 -73 -1362 -139
-19 -15 -20 -20 -9 -34 102 -123 1764 -193 2863 -121 702 46 966 123 660 193
-226 52 -684 89 -1252 101 l-315 6 -3 366 -2 366 89 7 c366 27 766 151 1089
337 228 131 392 257 577 444 374 376 620 834 725 1350 48 232 50 293 50 1277
l0 927 39 11 c43 11 87 56 98 98 10 40 -17 103 -56 129 -32 22 -44 23 -196 23
l-162 0 9 -57 c4 -32 5 -90 2 -129 -5 -48 -3 -74 5 -78 14 -9 15 -1592 1
-1818 -22 -336 -98 -624 -246 -924 -232 -471 -626 -863 -1099 -1094 -241 -117
-460 -186 -720 -226 -167 -25 -503 -25 -670 0 -260 40 -479 109 -720 226 -245
120 -433 255 -638 458 -425 422 -669 958 -707 1560 -14 226 -13 1809 1 1818 8
4 10 30 5 78 -3 39 -2 97 2 129 l9 57 -162 0 c-152 0 -164 -1 -196 -23z"/>
<path d="M7870 6418 c0 -326 5 -645 10 -708 72 -810 695 -1459 1503 -1565 963
-126 1845 584 1937 1560 5 62 10 373 10 708 l0 597 -1730 0 -1730 0 0 -592z
m3177 -250 l-4 -563 -25 -105 c-48 -193 -111 -339 -216 -500 -69 -105 -278
-316 -380 -384 -237 -157 -490 -242 -747 -252 l-110 -4 110 20 c614 112 1057
535 1197 1143 20 86 21 126 25 650 l4 557 75 0 75 0 -4 -562z"/>
<path d="M7770 1947 l0 -255 38 -6 c87 -14 383 -47 582 -66 921 -84 1877 -71
2800 40 91 11 182 23 203 26 l37 6 0 255 0 255 -27 -7 c-329 -83 -785 -129
-1455 -144 -901 -21 -1716 34 -2150 144 l-28 7 0 -255z"/>
</g>
</svg>
